<mxfile host="65bd71144e">
    <diagram id="eyVodC-xrqBTR1Uu5PuU" name="Page-1">
        <mxGraphModel dx="986" dy="553" grid="1" gridSize="10" guides="1" tooltips="1" connect="1" arrows="1" fold="1" page="1" pageScale="1" pageWidth="850" pageHeight="1100" math="0" shadow="0">
            <root>
                <mxCell id="0"/>
                <mxCell id="1" parent="0"/>
                <mxCell id="42" value="" style="shape=table;html=1;whiteSpace=wrap;startSize=0;container=1;collapsible=0;childLayout=tableLayout;" vertex="1" parent="1">
                    <mxGeometry x="330" y="160" width="480" height="190" as="geometry"/>
                </mxCell>
                <mxCell id="43" value="" style="shape=tableRow;horizontal=0;startSize=0;swimlaneHead=0;swimlaneBody=0;top=0;left=0;bottom=0;right=0;collapsible=0;dropTarget=0;fillColor=none;points=[[0,0.5],[1,0.5]];portConstraint=eastwest;" vertex="1" parent="42">
                    <mxGeometry width="480" height="63" as="geometry"/>
                </mxCell>
                <mxCell id="55" style="shape=partialRectangle;html=1;whiteSpace=wrap;connectable=0;fillColor=none;top=1;left=0;bottom=0;right=0;overflow=hidden;" vertex="1" parent="43">
                    <mxGeometry width="80" height="63" as="geometry">
                        <mxRectangle width="80" height="63" as="alternateBounds"/>
                    </mxGeometry>
                </mxCell>
                <mxCell id="44" value="&lt;div style=&quot;color: rgb(212, 212, 212); background-color: rgb(30, 30, 30); font-family: Menlo, Monaco, &amp;quot;Courier New&amp;quot;, monospace; font-weight: normal; font-size: 12px; line-height: 18px;&quot;&gt;&lt;div&gt;a&lt;/div&gt;&lt;/div&gt;" style="shape=partialRectangle;html=1;whiteSpace=wrap;connectable=0;top=0;left=0;bottom=0;right=0;overflow=hidden;flipV=1;" vertex="1" parent="43">
                    <mxGeometry x="80" width="80" height="63" as="geometry">
                        <mxRectangle width="80" height="63" as="alternateBounds"/>
                    </mxGeometry>
                </mxCell>
                <mxCell id="45" value="" style="shape=partialRectangle;html=1;whiteSpace=wrap;connectable=0;fillColor=none;top=0;left=0;bottom=0;right=0;overflow=hidden;" vertex="1" parent="43">
                    <mxGeometry x="160" width="80" height="63" as="geometry">
                        <mxRectangle width="80" height="63" as="alternateBounds"/>
                    </mxGeometry>
                </mxCell>
                <mxCell id="46" value="" style="shape=partialRectangle;html=1;whiteSpace=wrap;connectable=0;fillColor=none;top=0;left=0;bottom=0;right=0;overflow=hidden;" vertex="1" parent="43">
                    <mxGeometry x="240" width="80" height="63" as="geometry">
                        <mxRectangle width="80" height="63" as="alternateBounds"/>
                    </mxGeometry>
                </mxCell>
                <mxCell id="58" style="shape=partialRectangle;html=1;whiteSpace=wrap;connectable=0;fillColor=none;top=0;left=0;bottom=0;right=0;overflow=hidden;" vertex="1" parent="43">
                    <mxGeometry x="320" width="80" height="63" as="geometry">
                        <mxRectangle width="80" height="63" as="alternateBounds"/>
                    </mxGeometry>
                </mxCell>
                <mxCell id="61" style="shape=partialRectangle;html=1;whiteSpace=wrap;connectable=0;fillColor=none;top=0;left=0;bottom=0;right=0;overflow=hidden;" vertex="1" parent="43">
                    <mxGeometry x="400" width="80" height="63" as="geometry">
                        <mxRectangle width="80" height="63" as="alternateBounds"/>
                    </mxGeometry>
                </mxCell>
                <mxCell id="47" value="" style="shape=tableRow;horizontal=0;startSize=0;swimlaneHead=0;swimlaneBody=0;top=0;left=0;bottom=0;right=0;collapsible=0;dropTarget=0;fillColor=none;points=[[0,0.5],[1,0.5]];portConstraint=eastwest;" vertex="1" parent="42">
                    <mxGeometry y="63" width="480" height="64" as="geometry"/>
                </mxCell>
                <mxCell id="56" style="shape=partialRectangle;html=1;whiteSpace=wrap;connectable=0;fillColor=none;top=0;left=0;bottom=0;right=0;overflow=hidden;" vertex="1" parent="47">
                    <mxGeometry width="80" height="64" as="geometry">
                        <mxRectangle width="80" height="64" as="alternateBounds"/>
                    </mxGeometry>
                </mxCell>
                <mxCell id="48" value="aa" style="shape=partialRectangle;html=1;whiteSpace=wrap;connectable=0;fillColor=none;top=0;left=0;bottom=0;right=0;overflow=hidden;flipV=1;" vertex="1" parent="47">
                    <mxGeometry x="80" width="80" height="64" as="geometry">
                        <mxRectangle width="80" height="64" as="alternateBounds"/>
                    </mxGeometry>
                </mxCell>
                <mxCell id="49" value="" style="shape=partialRectangle;html=1;whiteSpace=wrap;connectable=0;fillColor=none;top=0;left=0;bottom=0;right=0;overflow=hidden;" vertex="1" parent="47">
                    <mxGeometry x="160" width="80" height="64" as="geometry">
                        <mxRectangle width="80" height="64" as="alternateBounds"/>
                    </mxGeometry>
                </mxCell>
                <mxCell id="50" value="" style="shape=partialRectangle;html=1;whiteSpace=wrap;connectable=0;fillColor=none;top=0;left=0;bottom=0;right=0;overflow=hidden;" vertex="1" parent="47">
                    <mxGeometry x="240" width="80" height="64" as="geometry">
                        <mxRectangle width="80" height="64" as="alternateBounds"/>
                    </mxGeometry>
                </mxCell>
                <mxCell id="59" style="shape=partialRectangle;html=1;whiteSpace=wrap;connectable=0;fillColor=none;top=0;left=0;bottom=0;right=0;overflow=hidden;flipH=1;flipV=1;" vertex="1" parent="47">
                    <mxGeometry x="320" width="80" height="64" as="geometry">
                        <mxRectangle width="80" height="64" as="alternateBounds"/>
                    </mxGeometry>
                </mxCell>
                <mxCell id="62" style="shape=partialRectangle;html=1;whiteSpace=wrap;connectable=0;fillColor=none;top=0;left=0;bottom=0;right=0;overflow=hidden;" vertex="1" parent="47">
                    <mxGeometry x="400" width="80" height="64" as="geometry">
                        <mxRectangle width="80" height="64" as="alternateBounds"/>
                    </mxGeometry>
                </mxCell>
                <mxCell id="51" value="" style="shape=tableRow;horizontal=0;startSize=0;swimlaneHead=0;swimlaneBody=0;top=0;left=0;bottom=0;right=0;collapsible=0;dropTarget=0;fillColor=none;points=[[0,0.5],[1,0.5]];portConstraint=eastwest;" vertex="1" parent="42">
                    <mxGeometry y="127" width="480" height="63" as="geometry"/>
                </mxCell>
                <mxCell id="57" style="shape=partialRectangle;html=1;whiteSpace=wrap;connectable=0;fillColor=none;top=0;left=0;bottom=0;right=0;overflow=hidden;" vertex="1" parent="51">
                    <mxGeometry width="80" height="63" as="geometry">
                        <mxRectangle width="80" height="63" as="alternateBounds"/>
                    </mxGeometry>
                </mxCell>
                <mxCell id="52" value="bb" style="shape=partialRectangle;html=1;whiteSpace=wrap;connectable=0;fillColor=none;top=0;left=0;bottom=0;right=0;overflow=hidden;flipV=1;" vertex="1" parent="51">
                    <mxGeometry x="80" width="80" height="63" as="geometry">
                        <mxRectangle width="80" height="63" as="alternateBounds"/>
                    </mxGeometry>
                </mxCell>
                <mxCell id="53" value="" style="shape=partialRectangle;html=1;whiteSpace=wrap;connectable=0;fillColor=none;top=0;left=0;bottom=0;right=0;overflow=hidden;" vertex="1" parent="51">
                    <mxGeometry x="160" width="80" height="63" as="geometry">
                        <mxRectangle width="80" height="63" as="alternateBounds"/>
                    </mxGeometry>
                </mxCell>
                <mxCell id="54" value="" style="shape=partialRectangle;html=1;whiteSpace=wrap;connectable=0;fillColor=none;top=0;left=0;bottom=0;right=0;overflow=hidden;pointerEvents=1;" vertex="1" parent="51">
                    <mxGeometry x="240" width="80" height="63" as="geometry">
                        <mxRectangle width="80" height="63" as="alternateBounds"/>
                    </mxGeometry>
                </mxCell>
                <mxCell id="60" style="shape=partialRectangle;html=1;whiteSpace=wrap;connectable=0;fillColor=none;top=0;left=0;bottom=0;right=0;overflow=hidden;pointerEvents=1;" vertex="1" parent="51">
                    <mxGeometry x="320" width="80" height="63" as="geometry">
                        <mxRectangle width="80" height="63" as="alternateBounds"/>
                    </mxGeometry>
                </mxCell>
                <mxCell id="63" style="shape=partialRectangle;html=1;whiteSpace=wrap;connectable=0;fillColor=none;top=0;left=0;bottom=0;right=0;overflow=hidden;pointerEvents=1;" vertex="1" parent="51">
                    <mxGeometry x="400" width="80" height="63" as="geometry">
                        <mxRectangle width="80" height="63" as="alternateBounds"/>
                    </mxGeometry>
                </mxCell>
            </root>
        </mxGraphModel>
    </diagram>
</mxfile>